<?xml version="1.0" encoding="UTF-8" standalone="no"?>
<svg
   width="22"
   height="25"
   viewBox="0 0 22 25"
   fill="none"
   version="1.1"
   id="svg-header-autorize"
   xmlns="http://www.w3.org/2000/svg"
   xmlns:svg="http://www.w3.org/2000/svg">
  <path
     id="svg-header-autorize-vector"
     d="M 10.909931,2.7845691 C 9.6415285,2.7906735 8.4274927,3.3044781 7.5348766,4.2129315 6.6422698,5.121396 6.1442125,6.3501012 6.150271,7.628742 c 0.00605,1.2786513 0.5157417,2.502497 1.416911,3.402356 0.901188,0.899757 2.1200396,1.401902 3.388434,1.395763 1.268446,-0.0061 2.482467,-0.519887 3.375011,-1.428335 0.892649,-0.908482 1.390666,-2.1371905 1.384679,-3.4158358 C 15.709218,6.3040364 15.199585,5.0801952 14.298322,4.180359 13.39716,3.2805417 12.178323,2.7784614 10.909931,2.7845691 Z M 3.7590114,7.6402628 C 3.7499295,5.7222916 4.4970157,3.8792338 5.8359359,2.516538 7.1748452,1.1538513 8.995914,0.38315326 10.898512,0.37399175 c 1.902568,-0.009164 3.730873,0.74396345 5.082667,2.09370415 1.351795,1.3497303 2.116244,3.1855075 2.125326,5.1034788 0.0091,1.9179712 -0.737992,3.7609883 -2.076863,5.1237093 -1.338972,1.362712 -3.160013,2.133443 -5.06256,2.142603 C 9.0644432,14.846638 7.2361575,14.093525 5.8843881,12.743736 4.5326208,11.394049 3.7681036,9.5582349 3.7590114,7.6402628 Z M 6.2073838,19.681626 c -0.951304,0.0046 -1.8618305,0.389889 -2.5312862,1.071248 -0.6694662,0.681358 -1.043005,1.602897 -1.038462,2.561858 0.00151,0.319722 -0.1230047,0.626867 -0.3461538,0.853952 C 2.0683241,24.395872 1.7648188,24.52431 1.4477162,24.525767 1.1306155,24.527324 0.82590258,24.401791 0.60061078,24.176826 0.37531693,23.951861 0.24789622,23.645903 0.2463787,23.326284 0.23880368,21.727983 0.86138307,20.19205 1.9771433,19.056521 3.0929059,17.920888 4.6104532,17.278701 6.1959589,17.271003 l 9.5649801,-0.046 c 1.585496,-0.0078 3.109111,0.619985 4.235543,1.744702 1.126526,1.12483 1.763568,2.654619 1.771204,4.252925 0.0015,0.319717 -0.122984,0.626869 -0.346143,0.853953 -0.223159,0.227085 -0.526673,0.355626 -0.843827,0.357078 -0.31706,0.0016 -0.621742,-0.12397 -0.847108,-0.348941 -0.225264,-0.224962 -0.352674,-0.53092 -0.354224,-0.850541 -0.0046,-0.958961 -0.38676,-1.876936 -1.062663,-2.55173 -0.675895,-0.674896 -1.590044,-1.051505 -2.541318,-1.046925 z"
     fill="#34485d"
     inkscape:transform-center-x="0.41539322"
     inkscape:transform-center-y="-0.66533787"
     style="stroke-width:1" />
</svg>
